<svg width="330" height="333" viewBox="0 0 330 333" fill="none" xmlns="http://www.w3.org/2000/svg">
<path fill-rule="evenodd" clip-rule="evenodd" d="M191.635 0.611017C190.727 0.98533 193.126 1.3095 198.344 1.51784C207.022 1.8639 215.453 2.88443 220.383 4.18464C222.051 4.62463 224.687 5.31959 226.241 5.72992C236.911 8.54574 245.65 12.1462 256.61 18.2411C271.342 26.435 292.544 44.8533 301.787 57.4882C302.924 59.0419 304.04 60.4721 304.268 60.6663C305.261 61.5145 309.737 68.2712 310.582 70.2007C314.557 79.2654 315.007 84.5834 315.158 124.229C315.303 162.429 315.26 161.904 319.109 171.194C321.323 176.539 321.305 177.118 318.889 178.438C316.956 179.494 314.561 179.666 301.81 179.667C292.064 179.669 286.494 179.944 285.566 180.47C284.789 180.91 283.265 181.686 282.179 182.196C278.521 183.91 274.903 187.589 274.039 190.474C272.036 197.158 271.14 230.008 272.417 249.941C272.753 255.184 272.892 259.825 272.729 260.254C272.095 261.904 265.166 262.813 256.231 262.418C245.272 261.933 239.762 261.103 236.129 259.392C233.496 258.151 233.28 257.823 232.95 254.573L232.597 251.086L230.587 254.796C228.695 258.287 228.646 258.584 229.757 259.813C230.408 260.531 233.696 262.45 237.065 264.078C246.748 268.754 250.842 270.817 252.505 271.858C253.723 272.621 254.397 272.651 255.683 271.997C259.512 270.052 272.505 265.479 274.202 265.479C276.126 265.479 276.078 266.796 274.08 268.792C272.988 269.883 269.251 273.318 265.775 276.426C256.413 284.793 256.489 284.704 252.812 291.795C250.941 295.406 248.638 299.622 247.695 301.165C245.923 304.063 242.3 311.374 241.404 313.857C239.961 317.859 239.235 319.187 237.252 321.444C234.193 324.929 230.353 325.847 218.825 325.847C210.1 325.847 208.797 325.672 203.465 323.791C200.26 322.66 197.638 321.472 197.638 321.15C197.638 320.829 197.238 320.566 196.75 320.566C195.6 320.566 179.95 308.464 172.213 301.593C168.911 298.661 165.115 295.295 163.778 294.112C162.441 292.93 158.945 289.695 156.009 286.924C146.219 277.68 142.93 274.751 142.652 275.029C142.5 275.181 145.561 278.576 149.454 282.575C158.674 292.045 162.679 296.577 162.679 297.54C162.679 299.138 137.064 297.923 125.6 295.78C117.464 294.261 114.033 293.144 106.287 289.495C97.8921 285.54 90.706 279.004 85.2057 270.32C81.76 264.88 78.8481 258.387 79.3114 257.179C79.62 256.376 80.423 256.247 82.8469 256.61C84.5722 256.869 88.5386 256.73 91.6623 256.302C97.2643 255.535 97.3674 255.55 99.2827 257.326C101.445 259.331 102.522 259.322 102.9 257.298C103.3 255.155 104.298 254.306 109.124 252.003C118.554 247.502 127.42 240.242 130.489 234.506C131.818 232.023 131.315 231.586 129.308 233.481C126.076 236.534 119.474 241.23 116.266 242.759C108.407 246.503 103.806 247.469 93.8192 247.469C87.7214 247.469 83.0524 247.111 80.8666 246.477L77.4476 245.484L77.8219 235.53C78.2273 224.758 79.079 217.535 80.3114 214.427C80.9435 212.831 80.8927 212.384 80.0396 212.056C77.9533 211.256 77.0429 212.48 75.9355 217.571C74.725 223.138 74.266 226.907 73.5816 236.876C73.1607 243.011 72.4269 244.851 70.8901 243.631C70.4882 243.312 69.3653 242.812 68.3942 242.519C66.553 241.962 59.3669 238.731 52.5777 235.407C50.4004 234.34 48.6192 233.202 48.6192 232.877C48.6192 232.551 48.3169 232.285 47.9468 232.285C46.4694 232.285 37.471 225.34 31.9912 219.969C18.059 206.316 10.3737 188.348 12.6499 174.749C13.8364 167.659 17.7695 159.988 21.7683 156.964C22.358 156.518 23.779 155.341 24.9259 154.348C27.1322 152.436 38.0304 146.829 39.5375 146.829C40.1152 146.829 40.1851 146.587 39.7381 146.14C38.9577 145.36 30.013 146.745 26.3723 148.21C20.0599 150.751 18.1657 151.659 15.0723 153.629C8.35801 157.904 3.66992 164.044 1.02007 172.03C0.0581544 174.93 -0.136766 177.499 0.0800524 184.389C0.392215 194.286 1.0349 197.159 4.6163 204.682C12.2396 220.695 27.1026 235.167 45.8246 244.806C49.4978 246.697 54.0926 248.811 56.0348 249.501C57.977 250.192 60.2017 251.024 60.9786 251.35C61.7554 251.676 63.1856 252.142 64.1567 252.386C73.4446 254.725 76.1629 256.024 76.1629 258.126C76.1629 261.548 84.7912 276.602 89.6883 281.724C92.853 285.033 98.3731 289.491 99.3067 289.491C99.7199 289.491 100.163 289.751 100.293 290.068C100.926 291.621 113.358 296.535 122.069 298.677C132.221 301.173 151.667 301.923 160.476 300.158L165.335 299.184L176.373 310.425C190.676 324.99 194.865 327.99 204.7 330.708C219.15 334.702 238.659 332.712 243.568 326.743C245.895 323.912 248.488 316.532 248.488 312.735C248.488 311.268 249.239 309.183 250.377 307.488C252.419 304.448 268.961 283.009 269.713 282.429C269.964 282.235 270.297 281.703 270.452 281.249C270.608 280.793 273.277 277.762 276.385 274.512C279.492 271.263 283.781 266.55 285.915 264.039C288.049 261.529 289.989 259.317 290.228 259.123C290.466 258.928 293.244 255.329 296.402 251.124C305.396 239.147 312.714 226.728 315.2 219.219C315.733 217.611 316.301 211.488 316.52 205.006C316.985 191.209 317.648 189.408 324.859 182.364L329.786 177.551L329.409 174.019C329.201 172.077 328.73 168.899 328.361 166.957C326.645 157.896 325.454 148.437 325.836 146.894C326.068 145.96 326.69 137.568 327.219 128.245C328.04 113.754 328.034 109.136 327.172 96.3983C326.618 88.2044 325.856 80.2294 325.48 78.6757C325.104 77.1219 324.789 75.0031 324.78 73.9671C324.739 69.3976 319.53 60.9361 310.991 51.5662C300.058 39.5692 290.174 30.7891 278.15 22.3925C266.658 14.3674 248.213 5.85987 236.835 3.33714C224.497 0.601836 218.718 -0.0260245 206.113 0.000812995C198.927 0.0156442 192.412 0.29038 191.635 0.611017ZM86.6366 94.9272C80.6533 98.8497 74.8387 104.664 72.8499 108.717C70.9275 112.632 69.6061 123.936 69.9289 133.712L70.1598 140.722L78.6348 130.972C86.4332 122.001 87.095 121.019 86.9255 118.665C85.722 101.94 85.5603 103.06 90.1093 96.601C92.3304 93.4469 92.9766 91.6883 91.877 91.7907C91.5853 91.8176 89.2278 93.2293 86.6366 94.9272ZM103.354 118.148C97.8999 119.686 92.1171 123.013 88.3521 126.778C84.1061 131.024 83.9797 132.562 88.0195 130.816C95.69 127.501 100.02 126.66 103.503 127.809C111.607 130.483 118.385 136.719 122.513 145.297C125.153 150.783 125.558 152.02 127.399 160.248C129.211 168.352 128.343 190.229 126.119 192.452C125.834 192.737 125.6 193.544 125.6 194.246C125.6 197.603 118.908 208.749 113.933 213.678C109.659 217.913 106.266 219.115 98.7629 219.054C94.0826 219.016 91.413 218.66 89.9348 217.878C85.0864 215.311 84.8668 216.853 89.4051 221.587C93.4371 225.794 100.146 230.166 102.567 230.166C103.532 230.166 105.216 230.509 106.309 230.927C109.518 232.155 115.978 230.452 121.481 226.929C130.145 221.381 137.899 209.616 140.99 197.326C142.973 189.441 143.262 186.977 143.327 177.364C143.415 164.417 144.27 160.666 145.62 167.31C145.817 168.281 146.296 170.347 146.686 171.901C147.075 173.454 147.78 177.94 148.252 181.87C149.066 188.642 148.977 191.544 147.584 203.682C146.973 209.004 144.162 220.205 143.162 221.303C142.826 221.672 142.55 222.365 142.55 222.842C142.55 225.696 133.951 240.438 129.377 245.425C124.254 251.009 115.55 256.23 105.472 259.762C103.78 260.355 104.634 260.45 109.71 260.233C117.514 259.902 120.556 259.224 125.764 256.661C138.018 250.629 149.564 235.481 155.133 218.128C158.945 206.249 160.207 198.145 160.207 185.532C160.207 176.615 159.813 172.782 158.011 164.132C155.138 150.342 148.528 137.418 139.999 128.909C131.209 120.141 124.179 117.107 112.997 117.259C109.247 117.309 104.907 117.709 103.354 118.148ZM95.4407 131.938C85.7616 134.392 77.43 145.081 74.0265 159.409C72.0745 167.627 72.066 182.942 74.0089 189.955C76.9236 200.473 83.354 209.831 90.0217 213.261C92.7089 214.643 94.4054 214.965 99.0483 214.973C104.174 214.981 105.095 214.769 107.944 212.925C120.612 204.724 127.805 181.792 123.802 162.366C122.329 155.223 121.589 152.984 118.765 147.134C113.198 135.599 104.178 129.723 95.4407 131.938ZM106.557 141.545C108.487 142.543 113.594 147.982 113.594 149.039C113.594 149.989 111.894 149.766 110.374 148.617C109.547 147.991 107.386 147.571 104.929 147.558C96.8857 147.513 90.6863 153.882 87.0766 165.898C85.3279 171.718 85.3039 185.517 87.0335 190.969C89.1036 197.495 87.97 202.577 85.6486 197.177C82.3546 189.515 81.1597 183.447 81.1321 174.231C81.1053 165.533 81.9125 161.106 84.7227 154.533C86.5851 150.179 86.6889 150.025 90.9942 145.31C95.8242 140.021 101.127 138.737 106.557 141.545ZM191.988 165.204C190.371 165.725 187.15 166.576 181.814 167.893C178.441 168.726 177.999 170.296 180.233 173.52C183.825 178.703 190.622 184.486 196.225 187.127C207.866 192.614 220 192.819 231.354 187.723C235.212 185.991 237.864 186.025 241.763 187.858C246.014 189.856 246.811 189.355 244.274 186.277L242.158 183.711L243.721 181.69C244.581 180.578 245.528 179.563 245.827 179.434C247.302 178.794 245.975 177.061 242.308 174.84C234.636 170.192 227.697 167.461 217.933 165.248C214.096 164.378 194.655 164.345 191.988 165.204ZM282.388 200.488C282.582 200.691 283.536 201.31 284.507 201.865C285.478 202.42 287.125 203.367 288.169 203.971C290.662 205.413 291.41 204.559 289.464 202.493C285.389 198.168 286.02 197.706 293.688 199.398C305.071 201.911 306.4 202.857 306.4 208.449C306.4 214.943 303.913 224.57 300.424 231.579C296.788 238.884 294.217 243.031 288.21 251.28C287.533 252.21 285.624 254.832 283.969 257.106C282.314 259.38 280.651 261.241 280.275 261.241C279.492 261.241 279.14 259.798 278.469 253.826C278.208 251.495 277.697 247.205 277.335 244.291C276.19 235.086 275.797 206.973 276.752 202.623C277.221 200.486 277.744 198.504 277.915 198.216C278.179 197.771 281.311 199.36 282.388 200.488ZM291.437 205.93C291.946 206.134 292.556 206.109 292.79 205.874C293.025 205.64 292.608 205.473 291.864 205.503C291.041 205.537 290.874 205.705 291.437 205.93Z" fill="#474A51"/>
</svg>
